# xmcd
#
# Track frame offsets: 
#        150
#        21524
#        32355
#        47808
#        57382
#        70450
#        90847
#        103615
#        121462
#        153998
#        164574
#
# Disc length: 2450 seconds
#
# Revision: 0
# Processed by: cddbd v1.5.2PL0 Copyright (c) Steve Scherf et al.
# Submitted via: ExactAudioCopy v1.0b3
#
DISCID=8e09900b
DTITLE=Joanne Vent - The Black And White Of It Is Blues (Remastered, L
DTITLE=P Miniature)
DYEAR=1900
DGENRE=Blues
TTITLE0=God Bless The Child
TTITLE1=Bet No One Ever Hurt This Bad
TTITLE2=Love Come Down
TTITLE3=You Can't Change
TTITLE4=Ninety Nine And A Half
TTITLE5=It's A Man's World..
TTITLE6=Weak Spot
TTITLE7=I Love You More Than You'll Ever Know.
TTITLE8=Stormy Monday
TTITLE9=Can't Turn You Loose
TTITLE10=Gloomy Sunday
EXTD=
EXTT0=
EXTT1=
EXTT2=
EXTT3=
EXTT4=
EXTT5=
EXTT6=
EXTT7=
EXTT8=
EXTT9=
EXTT10=
PLAYORDER=
